<svg width="37" height="37" viewBox="0 0 37 37" fill="none" xmlns="http://www.w3.org/2000/svg">
<path d="M32.2871 0.0445328C31.4336 0.118752 29.7711 0.400784 28.873 0.630859C25.9637 1.37305 23.1656 2.84258 20.8945 4.8168C20.5902 5.08398 19.1504 6.4793 17.7031 7.91914L15.0684 10.5316L11.5875 10.9844C9.6207 11.2367 8.025 11.4816 7.91367 11.541C7.80977 11.593 6.1918 13.1738 4.32891 15.0441C0.937109 18.4434 0.929688 18.4508 0.929688 18.7551C0.929688 18.9703 0.981641 19.1262 1.10039 19.2598C1.24883 19.4379 1.4418 19.4898 3.86133 19.9352L6.45898 20.425L6.95625 20.9148C7.23086 21.182 7.43125 21.427 7.40156 21.4566C7.37187 21.4863 6.86719 21.7684 6.28086 22.0875C5.12305 22.7184 4.9375 22.9113 5.04141 23.3492C5.07852 23.4977 6.34023 24.8113 9.19023 27.6687C13.5914 32.0773 13.5691 32.0551 14.0441 31.8102C14.2223 31.7211 14.4078 31.4539 14.8457 30.6375C15.1648 30.0512 15.4395 29.5539 15.4691 29.5242C15.4988 29.4945 15.7437 29.6949 16.0109 29.9695L16.5082 30.4668L16.9906 33.0645C17.4359 35.4766 17.4879 35.677 17.666 35.8254C17.7996 35.9441 17.9555 35.9961 18.1707 35.9961C18.475 35.9961 18.4824 35.9887 21.8445 32.6414C23.6926 30.7934 25.2734 29.1902 25.3477 29.0863C25.459 28.9305 25.5777 28.218 25.9414 25.3754L26.3941 21.8574L29.0512 19.1855C30.5133 17.716 31.9531 16.2242 32.2574 15.8754C34.625 13.1145 36.191 9.59649 36.7551 5.7668C36.8887 4.84649 36.9332 1.97422 36.8293 1.09101C36.7477 0.452736 36.5844 0.252346 36.0723 0.148438C35.6789 0.0667992 32.918 -0.00741959 32.2871 0.0445328ZM35.3969 1.56602C35.5082 1.66992 35.4711 4.49023 35.3375 5.45508C35.2336 6.20469 34.9813 7.5332 34.8848 7.84492C34.818 8.05273 33.341 7.55547 32.3613 6.98398C31.5969 6.54609 30.4094 5.36602 29.9789 4.63867C29.4223 3.66641 28.8953 2.17461 29.0883 2.06328C29.3926 1.89258 31.9309 1.50664 33.0664 1.46211C33.8309 1.43242 35.3227 1.49922 35.3969 1.56602ZM27.7227 2.90937C28.1531 4.76484 29.3703 6.5832 30.9512 7.75586C31.8789 8.44609 33.2223 9.06953 34.1277 9.23281C34.2762 9.2625 34.4023 9.31445 34.4023 9.35156C34.4023 9.48516 33.7047 11.0586 33.3559 11.7266C32.5617 13.2109 31.7453 14.3316 30.4094 15.7715C29.9195 16.2984 26.743 19.5047 23.3512 22.8965L17.1836 29.0566L12.5449 24.418L7.90625 19.7793L14.9348 12.7582C19.3434 8.35703 22.2008 5.56641 22.5793 5.28438C23.5738 4.53477 24.7168 3.82227 25.6742 3.34727C26.4684 2.95391 27.4406 2.53828 27.5891 2.52344C27.6113 2.52344 27.6781 2.70156 27.7227 2.90937ZM10.0215 15.5859L6.60742 18.9926L4.92266 18.6809C4.00234 18.5102 3.22305 18.3469 3.20078 18.3246C3.17852 18.3098 4.3957 17.0555 5.90234 15.5488L8.64102 12.8102L11.0012 12.4984C12.3 12.3277 13.3762 12.1867 13.3984 12.1793C13.4207 12.1719 11.8992 13.7082 10.0215 15.5859ZM14.007 29.1828L13.584 29.9844L10.2961 26.6965C8.49258 24.893 7.02305 23.3863 7.03789 23.3566C7.04531 23.327 7.38672 23.1191 7.79492 22.8965L8.53711 22.4957L11.4836 25.4422L14.4301 28.3812L14.007 29.1828ZM24.4273 25.9172L24.123 28.2773L21.377 31.0234C19.8703 32.5301 18.6234 33.7473 18.6012 33.725C18.5789 33.7102 18.423 32.9309 18.2523 32.0031L17.9332 30.3184L21.325 26.9266C23.1879 25.0563 24.7168 23.5422 24.7242 23.5496C24.7316 23.557 24.598 24.6258 24.4273 25.9172Z" fill="#002D64" stroke="#002D64" stroke-width="0.5"/>
</svg>
